<?xml version="1.0" standalone="no"?><svg xmlns="http://www.w3.org/2000/svg" viewBox="0 0 1440 320"><path fill="#a2d9ff" fill-opacity="1" d="M0,32L17.1,64C34.3,96,69,160,103,176C137.1,192,171,160,206,138.7C240,117,274,107,309,101.3C342.9,96,377,96,411,85.3C445.7,75,480,53,514,64C548.6,75,583,117,617,154.7C651.4,192,686,224,720,245.3C754.3,267,789,277,823,272C857.1,267,891,245,926,234.7C960,224,994,224,1029,192C1062.9,160,1097,96,1131,58.7C1165.7,21,1200,11,1234,42.7C1268.6,75,1303,149,1337,149.3C1371.4,149,1406,75,1423,37.3L1440,0L1440,320L1422.9,320C1405.7,320,1371,320,1337,320C1302.9,320,1269,320,1234,320C1200,320,1166,320,1131,320C1097.1,320,1063,320,1029,320C994.3,320,960,320,926,320C891.4,320,857,320,823,320C788.6,320,754,320,720,320C685.7,320,651,320,617,320C582.9,320,549,320,514,320C480,320,446,320,411,320C377.1,320,343,320,309,320C274.3,320,240,320,206,320C171.4,320,137,320,103,320C68.6,320,34,320,17,320L0,320Z"></path></svg>