<?xml version="1.0" standalone="no"?><svg xmlns="http://www.w3.org/2000/svg" viewBox="0 0 1440 320"><path fill="#a2d9ff" fill-opacity="1" d="M0,32L17.1,64C34.3,96,69,160,103,176C137.1,192,171,160,206,138.7C240,117,274,107,309,101.3C342.9,96,377,96,411,85.3C445.7,75,480,53,514,64C548.6,75,583,117,617,154.7C651.4,192,686,224,720,245.3C754.3,267,789,277,823,272C857.1,267,891,245,926,234.7C960,224,994,224,1029,192C1062.9,160,1097,96,1131,58.7C1165.7,21,1200,11,1234,42.7C1268.6,75,1303,149,1337,149.3C1371.4,149,1406,75,1423,37.3L1440,0L1440,0L1422.9,0C1405.7,0,1371,0,1337,0C1302.9,0,1269,0,1234,0C1200,0,1166,0,1131,0C1097.1,0,1063,0,1029,0C994.3,0,960,0,926,0C891.4,0,857,0,823,0C788.6,0,754,0,720,0C685.7,0,651,0,617,0C582.9,0,549,0,514,0C480,0,446,0,411,0C377.1,0,343,0,309,0C274.3,0,240,0,206,0C171.4,0,137,0,103,0C68.6,0,34,0,17,0L0,0Z"></path></svg>